<?xml version="1.0" standalone="no"?><!DOCTYPE svg PUBLIC "-//W3C//DTD SVG 1.1//EN" "http://www.w3.org/Graphics/SVG/1.1/DTD/svg11.dtd"><svg t="1651471451175" class="icon" viewBox="0 0 1024 1024" version="1.1" xmlns="http://www.w3.org/2000/svg" p-id="9965" width="200" height="200" xmlns:xlink="http://www.w3.org/1999/xlink"><defs><style type="text/css">@font-face { font-family: feedback-iconfont; src: url("//at.alicdn.com/t/font_1031158_u69w8yhxdu.woff2?t=1630033759944") format("woff2"), url("//at.alicdn.com/t/font_1031158_u69w8yhxdu.woff?t=1630033759944") format("woff"), url("//at.alicdn.com/t/font_1031158_u69w8yhxdu.ttf?t=1630033759944") format("truetype"); }
</style></defs><path d="M524.765091 998.643071c20.407596-41.466828 54.079354-74.890343 53.537616-124.827152-1.326545-122.476606-0.967111-244.972606-1.217939-367.460848-0.072404-35.378424-5.681131-72.856566 34.412606-93.579637 2.125576-1.09899 3.784404-3.538747 5.099313-5.696646 10.761051-17.662707 2.971152-31.299232-17.126142-36.244687-10.029253-2.468202-17.974303-12.498747-27.618262-17.709253-9.033697-4.880808-19.789576-11.923394-28.403071-10.364121-5.800081 1.049859-10.695111 14.969535-13.26804 23.915313-3.021576 10.505051 11.018343 25.986586-9.593536 31.336728-2.15402-10.960162-3.559434-22.140121-6.701252-32.809374-2.441051-8.28897-5.657859-21.210505-11.018344-22.621091-7.717495-2.031192-18.284606 3.37196-26.556767 7.674828-11.178667 5.815596-20.487758 16.336162-32.116364 19.931798-20.522667 6.344404-27.98804 19.077172-16.294788 37.438061 5.359192 8.413091 12.95903 16.964525 21.620364 21.374707 16.668444 8.485495 19.170263 21.394101 19.233616 37.982384 0.508121 131.904646 3.479273 263.835152 1.581253 395.698424-0.783515 54.36897 32.307717 91.165737 54.429737 135.960566z m102.886141-826.330505l-9.479757-7.005091c9.567677 2.65697 19.355152 4.706263 28.670707 8.064 94.748444 34.146263 136.46998 97.891556 57.059555 189.424485-15.142788 17.454545-31.17899 34.14497-46.039919 51.829656-23.661899 28.158707-22.402586 45.827879 5.514344 69.522101 24.114424 20.467071 48.72404 40.410505 73.925818 59.516121 22.48404 17.04598 37.008808 15.409131 50.304-8.255353 16.705939-29.736081 30.487273-61.146505 44.691394-92.218182 1.900606-4.158061 0.845576-12.286707-2.139798-15.64703-24.029091-27.048081-72.265697-25.451313-92.590546 3.329293-3.843879 5.443232-5.925495 18.782384-3.05907 20.988121 6.826667 5.250586 16.987798 6.645657 26.040888 8.246303 2.994424 0.530101 6.720646-3.075879 12.745697-6.12202-1.46101 18.526384-3.673212 32.385293-24.213979 31.225535-29.063758-1.640727-46.779475-30.829899-35.13794-57.442263 13.862788-31.693576 37.313939-43.333818 70.330182-34.90909 41.680162 10.636929 44.187152 6.712889 51.201293-36.428283 20.191677-124.180687-63.12598-197.502707-122.34602-267.676445l-85.476849 83.558142zM212.963556 433.749333c11.132121 24.096323 22.387071 48.78998 33.956202 73.33495 4.734707 10.044768 9.182384 20.438626 15.451798 29.503353 15.071677 21.793616 27.305374 24.000646 48.915393 7.85196 23.959273-17.905778 47.429818-36.557576 70.131071-56.029091 34.448808-29.54602 34.764283-46.68897 4.489051-80.813252-19.855515-22.379313-40.99103-44.011313-58.000808-68.451556-41.876687-60.170343-29.822707-111.481535 34.213495-147.723636 20.439919-11.567838 43.464404-18.570343 65.305858-27.662223l-8.167434 8.281213-82.464323-84.172283c-18.628525 21.90998-43.959596 51.649939-69.232485 81.43903-51.335758 60.502626-63.939232 130.011798-49.651071 206.593293 3.802505 20.380444 13.495596 25.897374 31.91596 21.242828 6.622384-1.673051 13.111596-3.944727 19.790868-5.307475 33.773899-6.89002 66.278141 13.624889 69.105778 47.508687 0.985212 11.80703-7.938586 27.782465-17.400242 36.077899-7.76404 6.807273-23.475717 7.725253-34.770748 5.855677-4.911838-0.813253-7.585616-15.151838-8.405333-16.973576l39.059394-12.995232c-4.923475-10.408081-7.325737-23.651556-15.243637-30.691556-23.429172-20.835556-53.118707-15.855192-88.998787 13.13099z m290.795313-295.990303c-4.945455 14.77301-11.733333 29.264162-14.370909 44.474182-2.90004 16.718869-1.967838 34.10101-2.728081 51.193535-1.157172 26.033131-22.94303 46.021818-48.755071 44.668122-20.483879-1.074424-40.99103-3.468929-61.434828-2.991839-16.552081 0.385293-27.09204 9.702141-26.123637 27.991919 0.914101 17.274828 9.381495 26.770101 27.42691 26.755879 94.983758-0.072404 189.967515-0.125414 284.951272 0.014223 18.712566 0.027152 28.325495-8.467394 29.86796-27.340283 1.644606-20.112808-11.918222-25.354343-26.905859-26.74295-18.681535-1.731232-37.611313-0.876606-56.433778-0.955475-43.284687-0.18101-51.022869-9.042747-52.143838-54.12202-0.650343-26.174061-4.271838-52.273131-6.922343-82.576808 26.785616-19.373253 26.882586-19.410747 10.569697-60.249212-3.149576-7.884283-6.715475-15.759515-11.243313-22.906828-13.49301-21.295838-35.318949-23.155071-50.307879-3.035798-7.934707 10.651152-12.964202 23.818343-17.661414 36.460606-13.028848 35.055192-10.126222 40.490667 22.215111 49.362747z m-79.954748 668.833616l6.683152 1.215354c3.271111-8.274747 8.428606-16.307717 9.521131-24.860444 10.868364-85.112242-8.255354-164.112808-50.552242-237.967516-11.142465-19.456-24.423434-24.848808-42.039596-5.489777-7.261091 7.97996-17.957495 12.878869-27.213576 18.993131-31.398788 20.738586-31.811232 30.674747-3.512889 55.908848 48.991677 43.686788 83.732687 96.301253 99.056485 160.819718 2.495354 10.506343 5.363071 20.923475 8.057535 31.380686z m187.523879 0.320647l12.042343 0.239192c1.931636-6.257778 4.323556-12.414707 5.723798-18.788849 13.155556-59.928566 40.850101-112.20299 82.960808-156.688808 46.866101-49.508848 47.043232-49.340768-9.513373-89.871515-24.263111-17.388606-39.602424-16.024566-49.335596 12.043636-18.609131 53.665616-35.634424 108.353939-46.796283 163.92792-5.674667 28.24404 2.825051 59.335111 4.918303 89.138424z" fill="#05083d" p-id="9966"></path><path d="M524.765091 998.643071c-22.12202-44.794828-55.213253-81.591596-54.43103-135.960566 1.89802-131.863273-1.073131-263.793778-1.581253-395.698424-0.063354-16.589576-2.565172-29.496889-19.233616-37.982384-8.661333-4.408889-16.261172-12.960323-21.620364-21.374707-11.693253-18.359596-4.229172-31.092364 16.294788-37.438061 11.628606-3.595636 20.937697-14.116202 32.116364-19.931798 8.272162-4.302869 18.839273-9.70602 26.556767-7.674828 5.360485 1.410586 8.577293 14.332121 11.018344 22.621091 3.141818 10.669253 4.547232 21.849212 6.701252 32.809374 20.610586-5.350141 6.57196-20.831677 9.593536-31.336728 2.572929-8.945778 7.46796-22.865455 13.26804-23.915313 8.612202-1.559273 19.369374 5.48202 28.403071 10.364121 9.64396 5.210505 17.58901 15.241051 27.618263 17.709253 20.097293 4.945455 27.887192 18.58198 17.126141 36.244687-1.314909 2.157899-2.973737 4.597657-5.099313 5.696646-40.093737 20.724364-34.483717 58.201212-34.412606 93.579637 0.250828 122.488242-0.108606 244.984242 1.217939 367.460848 0.541737 49.936808-33.13002 83.360323-53.536323 124.827152zM627.651232 172.312566l85.475556-83.558142c59.22004 70.173737 142.537697 143.495758 122.34602 267.676445-7.015434 43.141172-9.521131 47.063919-51.201293 36.428283-33.016242-8.42602-56.467394 3.214222-70.330182 34.90909-11.640242 26.613657 6.075475 55.801535 35.13794 57.442263 20.540768 1.159758 22.75297-12.699152 24.21398-31.225535-6.025051 3.046141-9.74998 6.650828-12.745697 6.12202-9.053091-1.600646-19.214222-2.995717-26.040889-8.246303-2.866424-2.204444-0.784808-15.543596 3.05907-20.988121 20.323556-28.779313 68.560162-30.376081 92.590546-3.329293 2.985374 3.360323 4.041697 11.48897 2.139798 15.64703-14.204121 31.071677-27.985455 62.482101-44.691394 92.218182-13.295192 23.664485-27.81996 25.301333-50.304 8.255353-25.201778-19.105616-49.811394-39.050343-73.925818-59.516121-27.916929-23.694222-29.176242-41.363394-5.514344-69.522101 14.860929-17.684687 30.897131-34.375111 46.039919-51.829656 79.410424-91.532929 37.688889-155.278222-57.059555-189.424485-9.315556-3.357737-19.10303-5.40703-28.670707-8.064l9.48105 7.005091zM212.963556 433.749333c35.881374-28.986182 65.569616-33.966545 89.00008-13.13099 7.917899 7.041293 10.320162 20.283475 15.243637 30.691556l-39.059394 12.995232c0.819717 1.821737 3.493495 16.160323 8.405333 16.973576 11.29503 1.869576 27.006707 0.951596 34.770748-5.855677 9.461657-8.295434 18.385455-24.270869 17.400242-36.077899-2.827636-33.883798-35.331879-54.4-69.105778-47.508687-6.679273 1.362747-13.168485 3.634424-19.790868 5.307475-18.419071 4.655838-28.113455-0.862384-31.91596-21.242828-14.288162-76.581495-1.684687-146.090667 49.649778-206.594586 25.274182-29.787798 50.60396-59.527758 69.232485-81.43903l82.464323 84.172283 8.167434-8.281213c-21.841455 9.091879-44.865939 16.093091-65.305858 27.662223-64.036202 36.242101-76.088889 87.553293-34.213495 147.723636 17.009778 24.440242 38.145293 46.072242 58.000808 68.451556 30.275232 34.124283 29.959758 51.267232-4.489051 80.813252-22.702545 19.471515-46.173091 38.124606-70.131071 56.029091-21.61002 16.148687-33.843717 13.942949-48.915393-7.85196-6.269414-9.06602-10.717091-19.458586-15.451798-29.503353-11.570424-24.543677-22.824081-49.237333-33.956202-73.333657z" fill="#05083d" p-id="9967"></path><path d="M503.758869 137.75903c-32.341333-8.872081-35.245253-14.307556-22.217697-49.361454 4.698505-12.642263 9.726707-25.809455 17.661414-36.460606 14.988929-20.119273 36.814869-18.26004 50.307879 3.035798 4.529131 7.147313 8.093737 15.022545 11.243313 22.906828 16.312889 40.838465 16.215919 40.87596-10.569697 60.249212 2.649212 30.303677 6.272 56.402747 6.922343 82.576808 1.119677 45.079273 8.859152 53.94101 52.143839 54.12202 18.823758 0.078869 37.753535-0.775758 56.433777 0.955475 14.987636 1.388606 28.550465 6.630141 26.905859 26.74295-1.542465 18.872889-11.155394 27.367434-29.86796 27.340282-94.983758-0.139636-189.967515-0.087919-284.951272-0.014222-18.044121 0.014222-26.511515-9.481051-27.426909-26.755879-0.968404-18.288485 9.571556-27.605333 26.123636-27.991919 20.443798-0.477091 40.950949 1.917414 61.434828 2.991839 25.81204 1.353697 47.597899-18.63499 48.755071-44.668122 0.760242-17.092525-0.17196-34.474667 2.728081-51.193535 2.641455-15.211313 9.42804-29.702465 14.373495-44.475475zM423.804121 806.592646c-2.695758-10.457212-5.563475-20.874343-8.057535-31.380686-15.323798-64.519758-50.064808-117.132929-99.056485-160.819718-28.298343-25.234101-27.885899-35.170263 3.512889-55.908848 9.256081-6.114263 19.952485-11.011879 27.213576-18.993131 17.616162-19.35903 30.897131-13.966222 42.039596 5.489777 42.296889 73.854707 61.420606 152.855273 50.552242 237.967516-1.092525 8.552727-6.25002 16.585697-9.521131 24.860444l-6.683152-1.215354zM611.328 806.913293c-2.09196-29.803313-10.591677-60.894384-4.918303-89.138424 11.163152-55.57398 28.188444-110.263596 46.796283-163.92792 9.733172-28.068202 25.071192-29.430949 49.335596-12.043636 56.556606 40.530747 56.379475 40.362667 9.513373 89.871515-42.110707 44.484525-69.805253 96.760242-82.960808 156.688808-1.398949 6.374141-3.792162 12.531071-5.723798 18.788849l-12.042343-0.239192z" fill="#05083d" p-id="9968"></path></svg>